<svg xmlns="http://www.w3.org/2000/svg" width="640" height="380" viewBox="0 0 640 380" role="img"><title>Paper mean success: Cube 81.67%, TwoRooms 96.83%, Reacher 82.17%, PushT 85.50%</title><rect x="1" y="1" width="310" height="178" rx="16" fill="#F1F6F8" stroke="#D5E2E7"/><text x="24" y="42" fill="#102B3C" font-family="DejaVu Sans, Noto Sans CJK SC, sans-serif" font-size="25" font-weight="500" text-anchor="start" >Cube</text><g transform="translate(257 21) scale(0.8529411764705882)" fill="none" stroke="#078B80" stroke-width="1.8" stroke-linecap="round" stroke-linejoin="round"><path d="M16 2 29 9.5v15L16 32 3 24.5v-15Z M3 9.5 16 17 29 9.5 M16 17v15 M9.5 5.8l13 7.5"/></g><text x="24" y="115" fill="#102B3C" font-family="DejaVu Sans, Noto Sans CJK SC, sans-serif" font-size="54" font-weight="600" text-anchor="start" letter-spacing="-2">81.67</text><text x="203" y="113" fill="#078B80" font-family="DejaVu Sans, Noto Sans CJK SC, sans-serif" font-size="27" font-weight="400" text-anchor="start" >%</text><path d="M24 140h26" stroke="#078B80" stroke-width="3"/><text x="61" y="146" fill="#557280" font-family="DejaVu Sans, Noto Sans CJK SC, sans-serif" font-size="17" font-weight="400" text-anchor="start" >任务成功率</text><rect x="329" y="1" width="310" height="178" rx="16" fill="#F1F6F8" stroke="#D5E2E7"/><text x="352" y="42" fill="#102B3C" font-family="DejaVu Sans, Noto Sans CJK SC, sans-serif" font-size="25" font-weight="500" text-anchor="start" >TwoRooms</text><g transform="translate(585 21) scale(0.8529411764705882)" fill="none" stroke="#078B80" stroke-width="1.8" stroke-linecap="round" stroke-linejoin="round"><path d="M3 3h26v26H3Z M16 3v8m0 10v8"/><circle cx="9" cy="21" r="2"/><circle cx="23" cy="9" r="2"/></g><text x="352" y="115" fill="#102B3C" font-family="DejaVu Sans, Noto Sans CJK SC, sans-serif" font-size="54" font-weight="600" text-anchor="start" letter-spacing="-2">96.83</text><text x="531" y="113" fill="#078B80" font-family="DejaVu Sans, Noto Sans CJK SC, sans-serif" font-size="27" font-weight="400" text-anchor="start" >%</text><path d="M352 140h26" stroke="#078B80" stroke-width="3"/><text x="389" y="146" fill="#557280" font-family="DejaVu Sans, Noto Sans CJK SC, sans-serif" font-size="17" font-weight="400" text-anchor="start" >任务成功率</text><rect x="1" y="201" width="310" height="178" rx="16" fill="#F1F6F8" stroke="#D5E2E7"/><text x="24" y="242" fill="#102B3C" font-family="DejaVu Sans, Noto Sans CJK SC, sans-serif" font-size="25" font-weight="500" text-anchor="start" >Reacher</text><g transform="translate(257 221) scale(0.8529411764705882)" fill="none" stroke="#078B80" stroke-width="1.8" stroke-linecap="round" stroke-linejoin="round"><path d="m5 26 9-15 13 9"/><circle cx="5" cy="26" r="2.5"/><circle cx="14" cy="11" r="2.5"/><circle cx="27" cy="20" r="2.5"/></g><text x="24" y="315" fill="#102B3C" font-family="DejaVu Sans, Noto Sans CJK SC, sans-serif" font-size="54" font-weight="600" text-anchor="start" letter-spacing="-2">82.17</text><text x="203" y="313" fill="#078B80" font-family="DejaVu Sans, Noto Sans CJK SC, sans-serif" font-size="27" font-weight="400" text-anchor="start" >%</text><path d="M24 340h26" stroke="#078B80" stroke-width="3"/><text x="61" y="346" fill="#557280" font-family="DejaVu Sans, Noto Sans CJK SC, sans-serif" font-size="17" font-weight="400" text-anchor="start" >任务成功率</text><rect x="329" y="201" width="310" height="178" rx="16" fill="#F1F6F8" stroke="#D5E2E7"/><text x="352" y="242" fill="#102B3C" font-family="DejaVu Sans, Noto Sans CJK SC, sans-serif" font-size="25" font-weight="500" text-anchor="start" >PushT</text><g transform="translate(585 221) scale(0.8529411764705882)" fill="none" stroke="#078B80" stroke-width="1.8" stroke-linecap="round" stroke-linejoin="round"><path d="M3 5h26v8h-9v16h-8V13H3Z"/></g><text x="352" y="315" fill="#102B3C" font-family="DejaVu Sans, Noto Sans CJK SC, sans-serif" font-size="54" font-weight="600" text-anchor="start" letter-spacing="-2">85.50</text><text x="531" y="313" fill="#078B80" font-family="DejaVu Sans, Noto Sans CJK SC, sans-serif" font-size="27" font-weight="400" text-anchor="start" >%</text><path d="M352 340h26" stroke="#078B80" stroke-width="3"/><text x="389" y="346" fill="#557280" font-family="DejaVu Sans, Noto Sans CJK SC, sans-serif" font-size="17" font-weight="400" text-anchor="start" >任务成功率</text></svg>
